<!DOCTYPE svg PUBLIC "-//W3C//DTD SVG 1.1//EN" "http://www.w3.org/Graphics/SVG/1.1/DTD/svg11.dtd">
<!-- Uploaded to: SVG Repo, www.svgrepo.com, Transformed by: SVG Repo Mixer Tools -->
<svg fill="#000000" width="800px" height="800px" viewBox="0 0 24 24" id="add-user-left" data-name="Flat Color" xmlns="http://www.w3.org/2000/svg" class="icon flat-color">
<g id="SVGRepo_bgCarrier" stroke-width="0"/>
<g id="SVGRepo_tracerCarrier" stroke-linecap="round" stroke-linejoin="round"/>
<g id="SVGRepo_iconCarrier">
<path id="secondary" d="M5,20a1,1,0,0,0,1-1V18H7a1,1,0,0,0,0-2H6V15a1,1,0,0,0-2,0v1H3a1,1,0,0,0,0,2H4v1A1,1,0,0,0,5,20Z" style="fill: #0b6100;"/>
<path id="primary" d="M13,12a5,5,0,1,1,5-5A5,5,0,0,1,13,12ZM9,15v6a1,1,0,0,0,1,1H20a2,2,0,0,0,2-2,6,6,0,0,0-6-6H10A1,1,0,0,0,9,15Z" style="fill: #000000;"/>
</g>
</svg>