<!DOCTYPE svg PUBLIC "-//W3C//DTD SVG 1.1//EN" "http://www.w3.org/Graphics/SVG/1.1/DTD/svg11.dtd">
<!-- Uploaded to: SVG Repo, www.svgrepo.com, Transformed by: SVG Repo Mixer Tools -->
<svg fill="#003807" width="195px" height="195px" viewBox="-3.2 -3.2 38.40 38.40" xmlns="http://www.w3.org/2000/svg" stroke="#003807">
<g id="SVGRepo_bgCarrier" stroke-width="0"/>
<g id="SVGRepo_tracerCarrier" stroke-linecap="round" stroke-linejoin="round"/>
<g id="SVGRepo_iconCarrier">
<path d="m16 0c8.836556 0 16 7.163444 16 16s-7.163444 16-16 16-16-7.163444-16-16 7.163444-16 16-16zm0 2c-7.7319865 0-14 6.2680135-14 14s6.2680135 14 14 14 14-6.2680135 14-14-6.2680135-14-14-14zm6.6208153 9.8786797c.3905243.3905242.3905243 1.0236892 0 1.4142135l-7.0710678 7.0710678c-.3626297.3626297-.9344751.3885319-1.3269928.0777064l-.0872208-.0777064-4.24264068-4.2426407c-.39052429-.3905242-.39052429-1.0236892 0-1.4142135.39052428-.3905243 1.02368928-.3905243 1.41421358 0l3.5348268 3.5348268 6.3646681-6.3632539c.3905243-.3905243 1.0236893-.3905243 1.4142136 0z"/>
</g>
</svg>