<?xml version="1.0" encoding="utf-8"?><!-- Uploaded to: SVG Repo, www.svgrepo.com, Generator: SVG Repo Mixer Tools -->
<svg fill="#000000" width="800px" height="800px" viewBox="0 0 24 24" id="edit-user-left" data-name="Flat Color" xmlns="http://www.w3.org/2000/svg" class="icon flat-color"><path id="primary" d="M13,12a5,5,0,1,1,5-5A5,5,0,0,1,13,12Zm0,9a1,1,0,0,0,1,1h6a2,2,0,0,0,2-2,6,6,0,0,0-6-6H10a6.26,6.26,0,0,0-1.57.21l4,4A2,2,0,0,1,13,19.61Z" style="fill: rgb(0, 0, 0);"></path><path id="secondary" d="M5.09,12.29l6.62,6.61a1.05,1.05,0,0,1,.29.71V21a1,1,0,0,1-1,1H9.61a1,1,0,0,1-.71-.29L2.29,15.09a1,1,0,0,1,0-1.4l1.4-1.4A1,1,0,0,1,5.09,12.29Z" style="fill: rgb(44, 169, 188);"></path></svg>